<svg width="109" height="120" viewBox="0 0 109 120" fill="none" xmlns="http://www.w3.org/2000/svg">
<path d="M45.5726 2.2865C50.8531 -0.762166 57.3589 -0.762168 62.6393 2.2865L99.6786 23.6711C104.959 26.7198 108.212 32.354 108.212 38.4513V81.2206C108.212 87.3179 104.959 92.9521 99.6786 96.0008L62.6393 117.385C57.3589 120.434 50.8531 120.434 45.5726 117.385L8.53334 96.0008C3.25289 92.9521 0 87.3179 0 81.2206V38.4513C0 32.354 3.25289 26.7198 8.53333 23.6711L45.5726 2.2865Z" fill="#347DFE"/>
<path fill-rule="evenodd" clip-rule="evenodd" d="M57.9126 49.3078C57.2392 45.9828 53.8609 43.7619 50.4243 44.6783L43.3655 46.5607C41.0724 47.1721 39.3833 49.0521 38.9711 51.3246H33.2269C31.8903 51.3246 30.8068 52.4082 30.8068 53.7448L30.8068 73.1062C30.8068 74.4428 31.8903 75.5263 33.2269 75.5263L56.4825 75.5263C59.4066 75.5263 61.9122 73.4352 62.4353 70.5582L64.0989 61.4087H64.682L70.9306 61.3469C74.2318 61.3143 76.8908 58.6289 76.8908 55.3275C76.8908 52.0029 74.1957 49.3078 70.8711 49.3078L57.9126 49.3078ZM55.7814 53.3415L54.0001 53.3415V50.5244C54.0001 49.1993 52.744 48.2343 51.4636 48.5757L44.4048 50.4581C43.5219 50.6935 42.9076 51.4931 42.9076 52.4068L42.9076 71.4927L56.4825 71.4927C57.4572 71.4927 58.2924 70.7957 58.4668 69.8367L60.7333 57.3751L64.662 57.3751L70.8908 57.3135C71.9799 57.3027 72.8572 56.4167 72.8572 55.3275C72.8572 54.2306 71.968 53.3415 70.8711 53.3415L58.0337 53.3415L55.7814 53.3415ZM38.874 71.4927L38.874 55.3583L34.8404 55.3583L34.8404 71.4927H38.874Z" fill="#CECFDB"/>
</svg>
