<svg width="109" height="120" fill="none" xmlns="http://www.w3.org/2000/svg"><path d="M45.573 2.287a17.067 17.067 0 0 1 17.066 0L99.68 23.67a17.067 17.067 0 0 1 8.533 14.78v42.77A17.067 17.067 0 0 1 99.679 96l-37.04 21.384a17.065 17.065 0 0 1-17.066 0L8.533 96.001A17.067 17.067 0 0 1 0 81.22V38.45a17.067 17.067 0 0 1 8.533-14.78l37.04-21.384Z" fill="#347DFE"/><path fill-rule="evenodd" clip-rule="evenodd" d="M57.913 49.308c-.674-3.325-4.052-5.546-7.489-4.63l-7.059 1.883a6.051 6.051 0 0 0-4.394 4.764h-5.744a2.42 2.42 0 0 0-2.42 2.42v19.361a2.42 2.42 0 0 0 2.42 2.42h23.256a6.05 6.05 0 0 0 5.952-4.968l1.664-9.15h.583l6.249-.061a6.02 6.02 0 0 0-.06-12.04H57.913Zm-2.132 4.034h-1.78v-2.818a2.017 2.017 0 0 0-2.537-1.948l-7.06 1.882a2.017 2.017 0 0 0-1.496 1.949v19.086h13.575c.974 0 1.81-.697 1.984-1.656l2.266-12.462h3.929l6.229-.062a1.986 1.986 0 0 0-.02-3.971h-15.09Zm-16.907 18.15V55.359H34.84v16.135h4.034Z" fill="#CECFDB"/></svg>