<?xml version="1.0" encoding="utf-8"?><svg viewBox="0 0 128 128" xmlns="http://www.w3.org/2000/svg" xmlns:xlink="http://www.w3.org/1999/xlink"><style>:root>svg{display:none}:root>svg:target{display:block}</style><svg fill="none" viewBox="0 0 109 120" id="icon-next" xmlns="http://www.w3.org/2000/svg"><path d="M45.573 2.287a17.067 17.067 0 0117.066 0L99.68 23.67a17.067 17.067 0 018.533 14.78v42.77A17.067 17.067 0 0199.679 96l-37.04 21.384a17.065 17.065 0 01-17.066 0L8.533 96.001A17.067 17.067 0 010 81.22V38.45a17.067 17.067 0 018.533-14.78l37.04-21.384z" fill="#347DFE"/><path fill-rule="evenodd" clip-rule="evenodd" d="M57.913 49.308c-.674-3.325-4.052-5.546-7.489-4.63l-7.059 1.883a6.051 6.051 0 00-4.394 4.764h-5.744a2.42 2.42 0 00-2.42 2.42v19.361a2.42 2.42 0 002.42 2.42h23.256a6.05 6.05 0 005.952-4.968l1.664-9.15h.583l6.249-.061a6.02 6.02 0 00-.06-12.04H57.913zm-2.132 4.034h-1.78v-2.818a2.017 2.017 0 00-2.537-1.948l-7.06 1.882a2.017 2.017 0 00-1.496 1.949v19.086h13.575c.974 0 1.81-.697 1.984-1.656l2.266-12.462h3.929l6.229-.062a1.986 1.986 0 00-.02-3.971h-15.09zm-16.907 18.15V55.359H34.84v16.135h4.034z" fill="#CECFDB"/></svg><svg fill="none" viewBox="0 0 80 80" id="ig" xmlns="http://www.w3.org/2000/svg"><path d="M40 7.203c10.688 0 11.953.047 16.156.234 3.907.172 6.016.829 7.422 1.375 1.86.72 3.203 1.594 4.594 2.985 1.406 1.406 2.266 2.734 2.984 4.594.547 1.406 1.203 3.53 1.375 7.422.188 4.218.235 5.484.235 16.156 0 10.687-.047 11.953-.235 16.156-.172 3.906-.828 6.016-1.375 7.422-.719 1.86-1.594 3.203-2.984 4.594-1.406 1.406-2.734 2.265-4.594 2.984-1.406.547-3.531 1.203-7.422 1.375-4.218.188-5.484.234-16.156.234-10.688 0-11.953-.046-16.156-.234-3.907-.172-6.016-.828-7.422-1.375-1.86-.719-3.203-1.594-4.594-2.984-1.406-1.407-2.265-2.735-2.984-4.594-.547-1.406-1.203-3.531-1.375-7.422-.188-4.219-.235-5.484-.235-16.156 0-10.688.047-11.953.235-16.157.172-3.906.828-6.015 1.375-7.421.719-1.86 1.594-3.203 2.984-4.594 1.406-1.406 2.735-2.266 4.594-2.985 1.406-.546 3.531-1.203 7.422-1.374 4.203-.188 5.468-.235 16.156-.235zM40 0C29.14 0 27.781.047 23.516.234c-4.25.188-7.172.875-9.703 1.86-2.641 1.031-4.876 2.39-7.094 4.625-2.235 2.218-3.594 4.453-4.625 7.078C1.109 16.344.422 19.25.234 23.5.047 27.781 0 29.14 0 40s.047 12.219.234 16.484c.188 4.25.875 7.172 1.86 9.703 1.031 2.641 2.39 4.876 4.625 7.094 2.218 2.219 4.453 3.594 7.078 4.61 2.547.984 5.453 1.671 9.703 1.859 4.266.188 5.625.234 16.484.234 10.86 0 12.22-.046 16.485-.234 4.25-.188 7.172-.875 9.703-1.86 2.625-1.015 4.86-2.39 7.078-4.609 2.219-2.219 3.594-4.453 4.61-7.078.984-2.547 1.671-5.453 1.859-9.703.187-4.266.234-5.625.234-16.484 0-10.86-.047-12.22-.234-16.485-.188-4.25-.875-7.172-1.86-9.703-.984-2.656-2.343-4.89-4.578-7.11-2.219-2.218-4.453-3.593-7.078-4.609C63.656 1.125 60.75.438 56.5.25 52.219.047 50.86 0 40 0z" fill="#CECFDB"/><path d="M40 19.453c-11.344 0-20.547 9.203-20.547 20.547 0 11.344 9.203 20.547 20.547 20.547 11.344 0 20.547-9.203 20.547-20.547 0-11.344-9.203-20.547-20.547-20.547zm0 33.875c-7.36 0-13.328-5.969-13.328-13.328 0-7.36 5.969-13.328 13.328-13.328 7.36 0 13.328 5.969 13.328 13.328 0 7.36-5.969 13.328-13.328 13.328zM66.156 18.64a4.798 4.798 0 01-9.594 0 4.798 4.798 0 014.797-4.796 4.808 4.808 0 014.797 4.796z" fill="#CECFDB"/></svg><svg fill="none" viewBox="0 0 128 128" id="play" xmlns="http://www.w3.org/2000/svg"><path d="M57.067 17.241a13.866 13.866 0 0113.866 0l30.095 17.375a13.867 13.867 0 016.933 12.009v34.75c0 4.954-2.643 9.532-6.933 12.009l-30.095 17.375a13.867 13.867 0 01-13.866 0L26.972 93.384a13.867 13.867 0 01-6.933-12.009v-34.75c0-4.954 2.643-9.532 6.933-12.009l30.095-17.375z" fill="#347DFE"/><path d="M55.717 6.884a16.567 16.567 0 0116.567 0l37.039 21.384a16.566 16.566 0 018.283 14.347v42.77a16.566 16.566 0 01-8.283 14.347l-37.04 21.384a16.564 16.564 0 01-16.566 0l-37.04-21.384a16.567 16.567 0 01-8.283-14.347v-42.77a16.567 16.567 0 018.284-14.347L55.717 6.884z" stroke="#347DFE"/><path d="M52 53.482c0-3.087 3.349-5.01 6.016-3.455l18.03 10.518c2.646 1.543 2.646 5.367 0 6.91l-18.03 10.518C55.349 79.528 52 77.605 52 74.518V53.482z" fill="#CECFDB"/></svg><svg fill="none" viewBox="0 0 80 80" id="tg" xmlns="http://www.w3.org/2000/svg"><path fill-rule="evenodd" clip-rule="evenodd" d="M80 40c0 22.091-17.909 40-40 40S0 62.091 0 40 17.909 0 40 0s40 17.909 40 40zM41.433 29.53c-3.89 1.618-11.666 4.967-23.327 10.047-1.894.753-2.885 1.49-2.976 2.21-.152 1.218 1.372 1.697 3.448 2.35.282.089.575.18.875.278 2.042.664 4.79 1.44 6.218 1.471 1.295.028 2.741-.506 4.338-1.602C40.904 36.93 46.528 33.212 46.88 33.132c.249-.056.594-.127.828.08.234.208.21.602.186.708-.151.643-6.135 6.207-9.232 9.086a109.11 109.11 0 00-1.79 1.68c-.313.325-.633.633-.94.93-1.897 1.828-3.32 3.2.079 5.44a315.594 315.594 0 014.244 2.854c1.424.97 2.845 1.937 4.682 3.142.469.307.916.626 1.351.936 1.658 1.182 3.146 2.243 4.986 2.074 1.069-.098 2.173-1.104 2.734-4.101 1.325-7.084 3.93-22.433 4.531-28.758a7.057 7.057 0 00-.066-1.575c-.054-.311-.165-.755-.57-1.083-.479-.389-1.219-.47-1.55-.465-1.504.027-3.812.83-14.92 5.45z" fill="#CECFDB"/></svg><svg fill="none" viewBox="0 0 40 40" id="widget-icon-1" xmlns="http://www.w3.org/2000/svg"><path d="M20 16.25a3.75 3.75 0 100 7.5 3.75 3.75 0 000-7.5z" fill="#CECFDB"/><path fill-rule="evenodd" clip-rule="evenodd" d="M20 9.167c-4.363 0-8.287 1.752-11.114 3.922-1.416 1.086-2.577 2.293-3.392 3.467-.8 1.152-1.327 2.363-1.327 3.444 0 1.08.528 2.292 1.327 3.444.815 1.174 1.976 2.38 3.392 3.467 2.827 2.17 6.751 3.922 11.114 3.922s8.287-1.752 11.114-3.922c1.415-1.086 2.577-2.293 3.392-3.467.8-1.152 1.327-2.363 1.327-3.444 0-1.08-.528-2.292-1.327-3.444-.815-1.174-1.977-2.38-3.392-3.467-2.827-2.17-6.751-3.922-11.114-3.922zM13.75 20a6.25 6.25 0 1112.5 0 6.25 6.25 0 01-12.5 0z" fill="#CECFDB"/></svg><svg fill="none" viewBox="0 0 40 40" id="widget-icon-2" xmlns="http://www.w3.org/2000/svg"><path d="M14 8.75c-4.635 0-8.583 3.466-8.583 7.966 0 3.105 1.454 5.72 3.38 7.885 1.92 2.158 4.398 3.969 6.638 5.485l3.864 2.616a1.25 1.25 0 001.402 0l3.864-2.616c2.24-1.516 4.717-3.327 6.637-5.485 1.927-2.166 3.381-4.78 3.381-7.885 0-4.5-3.948-7.966-8.583-7.966-2.39 0-4.491 1.12-6 2.57-1.509-1.45-3.61-2.57-6-2.57z" fill="#CECFDB"/></svg></svg>