<svg width="40" height="40" fill="none" xmlns="http://www.w3.org/2000/svg"><path d="M20 16.25a3.75 3.75 0 1 0 0 7.5 3.75 3.75 0 0 0 0-7.5Z" fill="#CECFDB"/><path fill-rule="evenodd" clip-rule="evenodd" d="M20 9.167c-4.363 0-8.287 1.752-11.114 3.922-1.416 1.086-2.577 2.293-3.392 3.467-.8 1.152-1.327 2.363-1.327 3.444 0 1.08.528 2.292 1.327 3.444.815 1.174 1.976 2.38 3.392 3.467 2.827 2.17 6.751 3.922 11.114 3.922s8.287-1.752 11.114-3.922c1.415-1.086 2.577-2.293 3.392-3.467.8-1.152 1.327-2.363 1.327-3.444 0-1.08-.528-2.292-1.327-3.444-.815-1.174-1.977-2.38-3.392-3.467-2.827-2.17-6.751-3.922-11.114-3.922ZM13.75 20a6.25 6.25 0 1 1 12.5 0 6.25 6.25 0 0 1-12.5 0Z" fill="#CECFDB"/></svg>